<svg id="Layer_1" data-name="Layer 1" xmlns="http://www.w3.org/2000/svg" viewBox="0 0 1000 1000"><path d="M572.9,63.28c13-7.31,26.55-12.91,41.24-15.66,5.72-1.13,11.52-2.12,17.33-1.8,7.17.4,11.45,4.14,11.24,11.85a13.2,13.2,0,0,1-.21,3.89c-8.42,24.79-9.91,51.6-22.67,75.2-5.44,10.05-12.23,20.33-8.73,33,.83,7.94-5.21,10.86-10.49,14.35a60.61,60.61,0,0,0-21.82,22.27c-17.65,21.75-35.95,42.93-51.74,66.18C496.86,317,471.54,363.9,452.78,414.3c-3.16,8.49-5.46,17.44-11.18,24.82-4.2,2.85-5,7.58-6,11.9-2.42,10.56-8.56,18.89-15.21,26.94a27.59,27.59,0,0,1-17.21,10.19c-11.87,2-20.7,10.68-31.08,16-10.9,5.54-19.61,5.19-28.46-2.65-13-19.2-20.8-40.79-24.94-63.15-12.6-67.94-1.47-132,34.78-191.26,4-6.48,4.95-14.67,11.85-19.74-6.69,19.05-8.79,38.75-7.55,58.52,2.13,34.18,6.59,67.93,27.13,97.1,2.07,2.94,3.9,7.4,7.83,5.71,4.17-1.79,1.43-6.11.86-9.48-.88-5.09-3.43-9.91-2.62-15.29,6.35.16,12,2.9,18.89,2.55,12.88-.67,23.26-4.36,32-13.8,3.29-3.54,8.11-5.45,12.53-7.61A47.77,47.77,0,0,0,477,323.13c6.56-12.56,17.61-22.4,25.2-34.75,10.73-17.43,22.34-34.26,35.9-49.93,9.39-10.85,17.27-23.52,13.91-40.93-3.5-18.14-.15-36.24,11.6-52.18,8-10.81,12.63-23.58,15.48-36.81.95-4.4,3.71-7.53,6.42-10.82,5.83-7.07,11.65-14,13.38-23.59s1-10.73-9.19-9.47C584,65.36,578.15,68,572.9,63.28Z" style="fill:#90b1ce"/><path d="M528.62,485.8c-17.64,9.58-37.15,13.8-56.1,19.69-3.24,1-8.28.06-9,5.54,4.75,2.83,9.47-.11,14.2-.15,8.77-.08,12.56,4.24,10.56,12.83a24.27,24.27,0,0,1-3.1,8.17c-13.84,20.5-22.32,43.89-35.15,64.92-2.21,3.63-3.77,7.55-5.69,11.3-2,4-4.81,6.27-9.23,2.8-1.49-2.6-1.4-5.37-.92-8.19,2.16-11.4.71-22.91.94-34.37A305.89,305.89,0,0,1,443.46,499c6.75-26.25,12.8-52.66,21.44-78.45,15.75-47,35.57-92,60.73-134.72,4-6.76,7.68-13.69,11.81-20.35,12.45-18.65,24.82-37.37,40.34-53.72,9.91-13.7,24-23.55,34-37.22,2.1-2.68,3.81-5.75,7.06-7.34,5.44-2.49,10.93-8.68,16.93-3.9s1.9,11.7.29,17.44c-5.45,19.49-13.15,38.3-17.09,58.29-2.1,10.63-9.94,16.46-20.37,18.82-2.43.55-5.26-.09-7.13,2.25-3.91,1.26-8.11,2-11.62,4-1.94,1.1.93,1.13,1.52,1.72,11.8,4.57,15.46,10.85,13.41,23.32-1.11,6.74-2.07,13.72-5.77,19.53-9.51,14.91-13.13,31.74-16.35,48.65-2.11,11.1-7.19,20.71-12.84,30.19l-54.37,26.81c.23.66.47,1.32.71,2l20.37-5.05c3.41,1.72,6.24-.75,9.33-1.32,11.3-2.08,18.62,4.46,15.7,15.43-3.94,14.78-8.76,29.31-10.81,44.53C539.69,477.49,531.15,479.34,528.62,485.8Z" style="fill:#8ba7c6"/><path d="M572.9,63.28c8.24,1.64,16.07-2.11,24.23-1.79,6,.24,7.43,1.74,5.87,8.45-3.08,13.25-10.22,23.4-18.87,33.39-5.21,6-5,15.06-7.75,22.59a91.42,91.42,0,0,1-12,23.23c-12.27,16.51-11.67,34.72-9.53,53.21.87,7.51.16,13.49-3.54,20.33-6.6,12.2-16,21.8-24.49,32.43-11.39,14.35-20.45,30.6-30,46.37A66.46,66.46,0,0,1,485.79,315c-4,3.91-7.34,8-9,13.7-2.57,9-10.54,13-18.08,16.79-9.42,4.72-18.34,9.94-25.33,18-2.47,2.85-5.36,4.53-9.36,4.33-6.51-.31-13-.14-19.36,1.78-6,1.81-9.57-2.86-13.77-5.73-4-7.95-4.45-16.9-5.34-25.32-2-18.6-3.75-37.32-2.39-56.1.08-1.15,1.08-2.24,1.66-3.35,5.15,9.41,4.16,20.17,6.68,30.16.76,3,0,7.44,3.94,8.11,3.62.61,5.28-3.23,7.07-5.9,3.09-4.59,5.94-9.34,8.91-14,5.27-8.26,11.08-14.55,21.94-15.67,6.34-.66,11.72-5.47,14-12.31.82-2.48,1.5-5.06,4.43-6,6.32,1,5.69-3.31,5.79-7.34.4-16.26-1-32.5,1.74-48.78,5.8-34.8,18.35-66.91,42.52-92.5C522,93.54,545.63,75.54,572.9,63.28Z" style="fill:#96b6d1"/><path d="M343.6,501.46c.53-.33,1.4-1.07,1.54-.94,14.43,12.15,25.83.9,37.62-5.16,8-4.11,15.66-8.13,24.47-11,13.36-4.3,19.55-17.35,24.75-29.82,1.87-4.48,2.74-9.36,4.27-14,.56-1.68,1.25-4.15,3.92-1.85,2.45,4.32.15,8.29-1.19,12.16-12.4,35.94-19,73-21.9,110.82-.25,3.37.32,7.48-4.44,8.67a3.79,3.79,0,0,1-1.05-2.62,3.85,3.85,0,0,0,.29,2.62c3.18,7.18-.58,14.15-.65,21.23-.13,12.4.48,24.81-.38,37.22a18.74,18.74,0,0,1-.65,3.15c-1.72,5.78-.83,11.7-.93,17.55-.22,13.16-1.48,14.6-13.55,19.29-9.47,3.69-17.91.71-26.51-2.57-43.59-36-76.75-79.17-90.74-134.89-8-31.77-7.1-64-.89-96.06,1.3-6.67,2.64-13.32,4.45-20.08A125.81,125.81,0,0,0,290.7,452c7.84,20.27,21.16,36.39,36.62,51,6.62,6.26,13.87,11.85,20.49,18.1,2.58,2.44,5.64,5.24,8.24,2.82,3.12-2.92-1.6-4.61-3.16-6.63C349.1,512.4,345,507.75,343.6,501.46Z" style="fill:#82a0c2"/><path d="M436.09,611.17c2.23-.12,4.56.26,5.68-2.6,7.89-20.23,21.67-37.52,28.82-58.19,3-8.58,11.06-14.4,14.21-23.18,4.09-11.43,1.77-14.64-10.22-14.26-3.69.11-7.89,1.63-11.06-1.91,24.69-3.07,48.47-10.49,72.77-15.38,16.87.65,20.35,5.23,16.56,22-2.51,11.11-5.15,22.21-6.61,33.52-3.68,28.66-20.21,49.44-41,67.74-2.87,2.52-6.68,4.19-8.09,8.18-10.86,8.33-23.62,13-35.77,18.94-3,1.45-7.93.9-7.72,6.36,7,5.32,5,11.13.79,16.9-1.53,2.12-3.85,3.52-6,4.92-3.34,2.15-5.95,7.75-10.5,5.07-3.91-2.3-2.48-7.71-2.56-11.86-.11-5.54.16-11.08-1.62-16.45-1.36-10.28-.7-20.61-.63-30.91C433.14,616.85,433.39,613.56,436.09,611.17Z" style="fill:#7c94b7"/><path d="M369.21,666.25c3.57-3.49,6.77,0,9.71,1,9.42,3.17,17.07-1.5,25-4.9,3.81-1.63,2.3-5.59,2.65-8.68.86-7.54-2-15.43,2.05-22.68,2.15,1.91,2.63,4.5,2.54,7.12-1.17,35.17,1.82,70,7.9,104.64-1.93,10.67-8,14.61-18.66,11.06S378.83,747,369,741.18c-3.54-2.12-7.16-4.56-11.69-4-23.48-15.31-42.9-34.25-54.25-60.83,17.29,15.52,38.77,18.36,60.6,20.71-26.75-9.66-51.28-22.32-69.95-44.64-19.31-23.08-23.9-50.62-26.67-80.65,23.12,53.58,62,88,114.69,108.64Z" style="fill:#6981af"/><path d="M591.44,260.06c-.85-4.48,3.43-3.12,4.9-3.47,12.08-2.9,19.54-9.9,21.27-22.38,2.25-16.24,9.18-31.1,13.6-46.69,1.24-4.38,2.4-8.79,3.73-13.14,1-3.43,3-7.38-.48-9.89s-6.86.37-9.85,2.27c-1.94,1.24-3.63,2.81-6.11,2.75,0-8,7.78-10.38,11.43-15.76,12.59-9.35,22.57-21.55,34.43-31.71,17.18-14.72,19.73-35,20.67-55.85.49-10.66-3-16.25-13.17-19.55-5.63-1.83-11.45-2.23-17.35-2.28-3.78,0-7.93.81-10.94-2.65,14.88-4.06,29.39-2.32,43.24,3.76,11.47,5,22.63,10.87,30,21.73,2.47,5.79-.75,10.32-4,14.23-19.83,24-23.08,53.29-26.72,82.41-1.5,12-2.6,24-4.72,35.86a107.46,107.46,0,0,0-1.77,18.45c-.06,10.56-4.73,19.54-11.39,27.44-3.5,4.14-8.21,6.12-13.78,6.4-5.35.27-10.81.1-16,2C623.08,258.26,607.09,257.83,591.44,260.06Z" style="fill:#8199bc"/><path d="M451.82,263.51c-2.5,14.55-11.32,20.79-25.83,22.59-9,1.12-10.58,12.13-16,18.29-4,4.57-5.56,11-10.57,15-4.47,3.57-7.71,5-9-2.8-2.07-12.47-5.15-24.78-5.55-37.5-.25-44.38,17.13-81.78,44.23-116,15-19,32.55-35.2,50.06-51.79-11.36,17.26-21.88,35-27.14,55C443.53,198.63,442.13,231.11,451.82,263.51Z" style="fill:#9bbdd6"/><path d="M412.71,570.25c2.39-17.64,5.22-35.24,7.05-52.94,2.83-27.27,12.84-52.59,20.41-78.58,13-30.16,23.59-61.37,39-90.54,23.66-44.87,50.36-87.64,83.62-126.17,4.86-5.64,10.35-10.76,14.73-16.82,6.19-7.81,12.26-15.74,21.41-20.45a4.08,4.08,0,0,1,1.18,2.43c-4.75,9.15-14.4,14-19.77,22.6-15.54,17.09-29,35.78-41.83,54.92a731,731,0,0,0-84.33,179.2,137.12,137.12,0,0,0-4,14.12A476.91,476.91,0,0,0,432.75,546c-2,13.83-3.08,27.74-3.84,41.68-.88,16.23-2.71,32.41-1.92,48.7,1.12,23,1.92,46.06,5,68.94.48,3.6,1.08,7.16-2.07,10l-4.12-6.11c3.94,28.77,10.29,54.71,14.19,81.15-3.22-5.52-3.91-12-7.53-17.17-2.23-3.17-1.88.18-2.4,1.17-4.72-.64-4.93-4.79-5.79-8A445,445,0,0,1,410.41,681c-1.12-16.91-.59-33.8-.85-50.7C409.49,610.21,409.64,590.15,412.71,570.25Z" style="fill:#eceff0"/><path d="M638.48,254c-.32-.06-.72,0-1-.2a9.53,9.53,0,0,1-1.14-1.15c4.17-1.73,8.68-.95,13.06-2,16.38-3.93,27.26-12.79,27.29-28.82,0-14.46,4.17-28,4.79-42.23,1-22.11,5.75-43.67,10.74-65.16,2.86-12.35,9.49-22.81,17.1-32.65,3.46-4.47,6.33-9.06,7.44-14.63a53.4,53.4,0,0,1,13.32,27.9c.33,15.16,1.91,30.21.58,45.5-2.91,33.47-11,65.13-28.84,93.89a5.62,5.62,0,0,0-1.15,3.6c-9.09,9.45-21.4,11.24-33.32,13.78A120.29,120.29,0,0,1,638.48,254Z" style="fill:#748ab2"/><path d="M559.79,387.46c-.49-.78-1.59-2-1.39-2.27,12.18-16.71,12.19-37.42,18.32-56.1,1.85-5.63,3.57-11.08,7-15.92,6.06-8.52,7.66-18.58,9.19-28.51,1.42-9.21-5.44-14-11.59-18.89,17.7-1.55,35.29-4.71,53.17-3.69,8.64,1,15.54,4.41,18.65,13.16,2.94,8.26.58,12.59-7.92,15.12-2.4.71-5.25.46-7,2.81-5.51,3.71-12.72,1.45-19,5.66l13.09.58c-.41,4.85-4.67,1.55-6,2.56,6.23,1.57,7.33,6.64,6.09,11.8-3.35,14-5.68,28.17-10.12,41.9-2.54,7.83-9.84,9.86-15.4,14.07Z" style="fill:#829cbd"/><path d="M643.57,41.71c3.91.06,7.83,0,11.74.2,30.07,1.46,35.4,8.82,31.78,37.61-2.65,21.11-11.58,37.8-28.28,51-9.9,7.82-17.13,18.8-28.37,25.22-5.52,3.53-9.51,8.71-14.18,13.15-1.56,1.49-2.68,3.88-5.53,2.53-7-3.56-4.32-9.5-2.54-14.12,5.23-13.57,11.09-26.91,17-40.19,2.95-6.6,5.36-13.07,5.28-20.52-.11-10.25,5.51-19.12,7.94-28.79,4.38-17.46,2.39-20-15.51-20-2.93,0-5.85-.11-8.79-.16C623.52,43.48,633.25,41.12,643.57,41.71Z" style="fill:#8ca9c7"/><path d="M497.17,627.09c-2.45-4.44,2.22-5.31,4-7.22,10-10.71,21-20.36,29.39-32.61,10.15-14.83,11.82-32.06,15.35-48.83,1.2-5.71,2.23-11.45,3.61-17.12,4.61-19,4.65-19-13.23-25.66,25.4-6.18,50.42-13.53,74.59-23.59,7.84,5.65,8.64,12.12,3.49,23.83-11.14,25.34-24.55,49.28-42.77,70.31l.06-.07c-7.27,8.74-15.93,16.13-23.69,24.4C533.12,605.62,514.54,615.51,497.17,627.09Z" style="fill:#6c80a9"/><path d="M477.32,723.54c-7.7,7-16.42,13.28-17.65,24.87-2.48,6.74-6.85,4.14-10.21,1.47a13.59,13.59,0,0,1-4.94-13.72,4.44,4.44,0,0,1,3.56-3c13.39-1.52,20-11,26-21.51,8.16-14.16,15.75-28.62,23.58-43a41.88,41.88,0,0,0,3.3-8.16c4.09-13.84,2.21-16.15-11.92-14.78-2.45.24-5.42,1.2-5.83-2.86l56.93-25.65c5.86-.11,10.1-4.08,14.92-6.53,6.76-3.42,11.56-1.88,12.32,5.71,1,9.7,1.39,19.54-4.42,28.44-15.16,23.24-33.25,43.48-56.87,58.57C496.26,709.7,486.18,715.78,477.32,723.54Z" style="fill:#677aa8"/><path d="M528.62,485.8c-6.83-2.15-.79-4.9.31-5.48,9.58-5,10.54-13.77,11.31-23.16.8-9.79,4.91-18.86,7.85-28.17,4.42-14,0-19.25-14.4-16.77-2.6.45-5.09,1.48-7.19-1l70.61-17.63c13.22,6.31,17.26,15.25,12.82,29.58-2,6.55-4.69,12.91-6.8,19.45-2.85,8.9-11.82,10.73-18,15.82-2.43,2-6.32,2.1-7.61,5.69A384.92,384.92,0,0,1,528.62,485.8Z" style="fill:#788fb6"/><path d="M483.23,642.87c3.22,3.51,5.92.18,8.79-.68,9.2-2.75,14.11,1.54,13,10.79-2.14,17.45-13.76,30.55-20.72,45.78-3.22,7-8,13.38-11.76,20.19-5.86,10.53-14.07,16.88-26.7,16-5.69-.92-5.44-6.16-6.24-9.8-4.51-20.67-6-41.71-6.41-62.82-.07-3.53-.06-7.23,3-9.93,4.2,8.23.29,17.21,2.39,25.63,18.11-11,19.37-13.11,15.15-25.6Z" style="fill:#6f86ae"/><path d="M436.14,652.36c-.43,26.72,1.46,53.21,7.86,79.24a14.92,14.92,0,0,0,1.81,3.31c.32,4.88,1.26,9.66,4.74,13.27,2.7,2.81,6,3.81,9.12.23,3.66,1,5.16-1.94,7.29-3.85,8.52-7.64,17.53-14.58,28.14-19.16,3.39.58,7.92-4.44,10.09,2.07q-12,9.46-24,19a1.11,1.11,0,0,0-.46.74c.15,1.49,1.33.85,2.14,1,5.61,1.09,8.15,7.38,13.91,8.22a2.45,2.45,0,0,1,.24,1.87c-1.41,5.94-7.88,9.29-8.06,15.84l-4.29,3c3.95,2.48,9-.44,12.35,2.87-5.69,5.65-13.69.18-19.74,4.1-4.9-.12-9.28,1.59-13.49,3.86-6.87,7.56-9,7.43-16-1-6.27-31.16-14.47-61.84-17.94-93.66-5.28-48.51-3.88-96.71,1.31-145a5.72,5.72,0,0,0-.81-3.74c2.51-30.1,9.05-59.4,17.66-88.29,6.36,1.94,3.53,6.63,2.62,10.17-2.62,10.2-5,20.37-4.66,31-3.75,23.39-8.22,46.71-8,70.55-2.63,11.71.72,23.72-1.8,35.43q0,3.92,0,7.82Q436.11,631.77,436.14,652.36Z" style="fill:#576ea0"/><path d="M357.33,737.13c2.74-3.93,5.4-.71,7.47.52,11.57,6.88,24.6,9.93,37.15,14.07,5.89,1.95,13.43,2.87,14.53-7.09,4,0,3.54,3.11,3.79,5.56,1.41,13.42,4,26.48,10.16,38.67,2.45,4.83,1.68,9.14-4.16,10.84-9.07,2.65-17.8,8.31-27.86,3.73-1.17-2.62-3.79-1.18-5.6-2,.25-4.41,3.79-3.22,5.87-3.68-4.51-3.2-9.06-7-14-10.21,2.61-3,6.94-.3,10.64-3.69-11.28-3-22.75-3.23-32.22-9.54-7-5.88-16.38-7.36-23.59-13-3.58-2.79-8.54-4.56-7-10.21,1.74-6.23,6.91-4.41,11.31-3.74a5.09,5.09,0,0,0,3.7-.45L401,760.77l.78-2Z" style="fill:#596da5"/><path d="M606.82,369.74c20.25-14.11,16.65-38,23.31-57.62,2.39-7.07-2.89-9.88-11-9.14,5-3.42,9.82-.16,13.11-3.57,20.32-1.81,41.06-1.59,60.11-13.18C673.85,331.2,658.3,352.58,606.82,369.74Z" style="fill:#728ab1"/><path d="M449.93,787.69c4.52,5.26,9.15,4.14,13.82.23-2,4.79.72,9,2,13.19,15.57,53.06,38.51,102.54,71.79,147,2.83,3.78,7.17,6.53,8.89,12-9.53,1.79-16.1-2.76-22-8.26-7.9-7.38-14.11-16.27-19.59-25.5-18-30.35-34-61.73-45.24-95.3-1.5-12.31-9-22.85-10.39-35.23C448.85,792.9,447.22,790.19,449.93,787.69Z" style="fill:#45518c"/><path d="M577.56,464.11c-1.62-5,3.21-4.95,5.31-5.76,18.46-7.12,20.89-24.51,25.72-40.08,3.44-11.08-3.76-18.26-11.48-24.7,21.22-6.92,43.39-11.55,61.72-27.08C652.59,400.1,614.54,445.36,577.56,464.11Z" style="fill:#667ba6"/><path d="M398.41,803.43c10.36,1,19.56-2.51,28.85-6.55,3.51-1.52,2.83-3,1.77-5-7.7-14-11-29-11.11-44.85,0-.82-.94-1.63-1.44-2.45q-3-21.69-6.09-43.38c-3.33-23.36-1-46.87-1.79-70.29l.06-.1c.49-.89,1-.91,1.58-.06-.3,47.17,3.83,93.77,18,139.08a46.05,46.05,0,0,0,1.87,4.42c6.68,29.26,18.26,56.74,30.66,83.91a62.72,62.72,0,0,1,4.38,11.5c-10.77-11.54-14.51-26.72-21.17-40.36-1.41-2.89-2.3-6-3.43-9.06-7.11-19-7.17-19-27.09-15.19C399,807.86,387.86,815.91,378.67,827c-4.84,5.81-3.56,12.56-1.91,20C363,830.07,373.55,809.76,398.41,803.43Z" style="fill:#465487"/><path d="M505.19,727.47c-2.65-4.16-7.27,1.26-10.09-2.07,17.38-10.83,35.85-19.92,50.81-34.46,23.53-22.89,33.45-37.38,50.31-76.26,2.13,6-.58,11.07-1.94,15.91a169.72,169.72,0,0,1-28.08,57.22c-7.37,9.76-17.94,14.86-28,20.8C527.32,715.07,516.21,721.19,505.19,727.47Z" style="fill:#434572"/><path d="M449.93,787.69a137,137,0,0,0,8.13,30.95c1.46,3.8,5.62,7.74,1.51,12.39-11.16-21.52-14.33-45.46-20.84-68.4-3.45-12.14-3.94-24.89-8.1-36.9-1.1-3.19-.51-7-.7-10.47-3.81-33.12-6.15-66.34-5.16-99.7.7-23.76,1.59-47.53,5.5-71.06,3.73,4.65,2.29,10.19,1.59,15-4.88,33.73-4.55,67.67-3.24,101.5,1.3,33.49,7.69,66.41,16,98.93C446.89,769.06,448.17,778.43,449.93,787.69Z" style="fill:#394e7e"/><path d="M638.22,293.17c-1.18-3.24,2-2.84,3.24-3.31,4-1.51,9.51-.48,10.4-6.61.91-6.33-1.7-11.49-6.57-15.19-3.24-2.46-7.16-4-10.78-6,16.09-2.72,32.56-.55,48.64-3.92,8-1.67,15.23-5.39,23-8C700.12,268.72,669.5,288,638.22,293.17Z" style="fill:#6a81ab"/><path d="M477.32,723.54c6.33-9.6,16.86-14.06,25.9-19.94a180.73,180.73,0,0,0,60.06-63.89c4.44-7.88,2.38-17,1.35-25.48-.4-3.28-3.56-5.68-8.26-2.89-4.9,2.91-9.42,7.84-16.21,5.88,17.87-9.34,34.65-20,46.23-38.67C591.34,623,537.73,693.31,477.32,723.54Z" style="fill:#525e8e"/><path d="M496.74,756.38c-8.76,4.25-9.39-5.28-13.91-8.22,19-10.33,37.09-22.68,58.6-27.7,13.3-3.1,26-2.11,37.81,5.83C545.54,719.74,521.28,738.44,496.74,756.38Z" style="fill:#46518b"/><path d="M347.59,746.91c-1.65,2.14-4,1.6-6.25,1.76-2.72.19-6.28-1.06-7.11,3.12-.8,4,2,5.69,5,7.32,8.22,4.46,16.39,9,24.55,13.6.13.07.1.64,0,.9s-.44.46-.67.69c-31.62-12.17-59-28.92-70-63.76C305.46,731.46,325.94,740.05,347.59,746.91Z" style="fill:#4e5c8e"/><path d="M488.92,774.09c-1.55-3.66-.24-9.3,2.85-11.87,1.67-1.4,3.47-2.65,5.21-4,10.22-1.36,20.42-2.86,30.67-4s18.28,2.65,25.39,13.43c-13.52-8.92-24.59-4.47-36.2-.18C507.94,770.76,498.25,772,488.92,774.09Z" style="fill:#495795"/><path d="M384.71,787.53c10.08-2.88,11,11.79,20.81,9.54-4.1,4.23-9.42.59-12.71,4.35-4.67,1.33-9.35,2.68-14,4-9.63,2.72-16.73,8-18.09,21.07C357.79,808.75,368.25,793.16,384.71,787.53Z" style="fill:#465487"/><path d="M571.6,566.2c5.67-11.73,14.95-21,21.81-32,8.2-13.1,13.88-27.33,20-41.33,2.92-6.67,3.84-14.58-2.55-20.83,6.7-3.95,13.08-8.34,19.23-15.48.43,8.18-3.69,13.33-5.72,19-10.64,29.48-24.57,57.24-44.11,81.95C577.73,560.72,575.76,564.56,571.6,566.2Z" style="fill:#475686"/><path d="M700.72,238.09c-2.91-2.44,0-3.94,1-5.65,16.22-28,24.82-58.14,27.11-90.44.93-13,2.39-25.75-.16-38.67-.53-2.67-1.2-5.88,1.47-8.23C738.22,146.44,729,194.23,700.72,238.09Z" style="fill:#51628c"/><path d="M477.24,784.06c5.58-6.16,13.13-2.88,19.74-4.1,18.78,3.47,24.07,5.86,32.6,15.43C513.22,786.29,494.9,786.8,477.24,784.06Z" style="fill:#364078"/><path d="M548,590.53c6.26-9.72,14.63-17.4,23.69-24.4C566.17,576.6,557.05,583.54,548,590.53Z" style="fill:#475686"/><path d="M610.73,171.44c7.58-3.95,10.72-13.49,19.71-15.68L618.5,169.51c-1.92,2-3.83,3.9-5.75,5.84-4.24,4.35-6.81,10.66-13.8,11.78,0-.93,0-1.87,0-2.81l-.09-1.12A41.38,41.38,0,0,0,610.73,171.44Z" style="fill:#96b6d1"/><path d="M598.91,183.2a4.28,4.28,0,0,0,.09,1.13q-10.75,10.42-21.5,20.87C581.9,195.2,589.28,188.1,598.91,183.2Z" style="fill:#8ca9c7"/><path d="M445.89,497.37c-5.62-10.19.34-19.69,1.69-29.48.53-3.86,4.64-7.67.35-11.68,14.87-49,32.94-96.68,58.11-141.46,9.88-17.57,18.88-35.67,31.61-51.49,1.46.14,1.7,1.5,2.41,2.39-10.7,19-21.9,37.7-32,57-12.95,24.8-23.59,50.68-33.19,77-11.15,30.53-20.62,61.56-27.09,93.45A20.45,20.45,0,0,1,445.89,497.37Z" style="fill:#6a87ae"/><path d="M540.06,265.65l-2.41-2.39c12.1-19.93,27.81-37.15,41.76-55.7,1.34,1.65,1,3.37.22,5.1C565,229.29,552.25,247.25,540.06,265.65Z" style="fill:#44628c"/><path d="M579.63,212.66c-.08-1.69-.15-3.39-.22-5.1L599,187.14l13.8-11.79c-1.12,6.78-7.26,9.62-11.25,14.09C594.42,197.37,586.94,204.94,579.63,212.66Z" style="fill:#8199bc"/><path d="M436.11,603.35c.59-11.81-1.9-23.78,1.8-35.43C437.15,579.72,440.09,591.71,436.11,603.35Z" style="fill:#7c94b7"/><path d="M410.24,630.8l-.79.06h-.8c-1.38-23.59,1-47.05,2.42-71,2.58,3.41.49,7.13,1.64,10.34Q411.48,600.52,410.24,630.8Z" style="fill:#6981af"/></svg>