<svg id="Layer_1" data-name="Layer 1" xmlns="http://www.w3.org/2000/svg" viewBox="0 0 253.11 253.13"><path d="M428.27,200.09a126.56,126.56,0,0,1-253.11,0v-.63c.31-69.78,56.25-125.55,126.67-126C372.14,74.07,427.9,130,428.27,200.09Zm-77.42-27.58h0V168a1.84,1.84,0,0,0-1.25-1.94,10.69,10.69,0,0,0-1.65-.56,15.47,15.47,0,0,0-5.83-.28,24.55,24.55,0,0,0-3.39.8,1.9,1.9,0,0,0-1.39,2.09c0,3,.05,5.92,0,8.87a2,2,0,0,0,1.37,2.13c.39.15.78.29,1.18.4a16.46,16.46,0,0,0,6.81.32,16,16,0,0,0,2.88-.79,1.77,1.77,0,0,0,1.26-1.92c0-1.54,0-3.08,0-4.62Zm-109,80.24h0v-4c0-1.75-.26-2.13-1.93-2.72a8.68,8.68,0,0,0-1-.27,17.08,17.08,0,0,0-6.83-.17,13.83,13.83,0,0,0-2.72.85,1.61,1.61,0,0,0-1,1.69v9.37a1.71,1.71,0,0,0,1,1.7,8.69,8.69,0,0,0,1.39.54,16.54,16.54,0,0,0,6.93.35,15.85,15.85,0,0,0,2.87-.79,1.77,1.77,0,0,0,1.26-1.93c0-1.54,0-3.08,0-4.62Zm42-110.91V146c0,1.81.28,2.21,2,2.78a15.19,15.19,0,0,0,5.92.63,12.48,12.48,0,0,0,4.14-.85,2,2,0,0,0,1.41-2.1c-.05-3,0-6,0-9a1.86,1.86,0,0,0-1.23-2,9.87,9.87,0,0,0-1.28-.48,15.74,15.74,0,0,0-9.69.45,1.83,1.83,0,0,0-1.31,2c.1,1.44.06,2.9.06,4.36ZM308.6,290.62v4.13c0,1.75.28,2.16,1.95,2.72a15.13,15.13,0,0,0,5.79.67,12.41,12.41,0,0,0,4.5-.94,1.85,1.85,0,0,0,1.25-1.82V286a1.71,1.71,0,0,0-1-1.7,8.74,8.74,0,0,0-1.39-.55,16.47,16.47,0,0,0-6.81-.36,15.84,15.84,0,0,0-2.88.75,1.9,1.9,0,0,0-1.39,2.1c.05,1.46,0,2.92,0,4.37Zm54.61-162.06h6a1.83,1.83,0,0,0,2-1.57,1.51,1.51,0,0,0,0-.52v-7.61a1.83,1.83,0,0,0-1.57-2,2.08,2.08,0,0,0-.43,0h-12.6a1.84,1.84,0,0,0-2,1.66,1.93,1.93,0,0,0,0,.34q-.08,3.87,0,7.74c0,1.4.69,2,2.14,2h4.62a9.22,9.22,0,0,1,1.26.06v2.68l-2.95.14v.26h6.42v-.26l-2.91-.15Zm-67.52,85.16h5.75c1.61,0,2.27-.68,2.27-2.29v-7.24c0-1.62-.62-2.24-2.27-2.25H289.35c-1.6,0-2.23.61-2.25,2.17v7.37c0,1.59.7,2.22,2.34,2.24h4.74a7.32,7.32,0,0,1,.93.09v2.75h-3v.33l2.13.06h2.38c.79,0,1.42.22,2-.46h-3Zm-89-14.94c.47,0,.88-.05,1.29-.05h4.49a1.94,1.94,0,0,0,2.23-2.2v-7.37c0-1.56-.63-2.2-2.19-2.21h-12.2c-1.57,0-2.19.62-2.21,2.21v7.37c0,1.53.71,2.18,2.25,2.2s3.25,0,4.87,0a7,7,0,0,1,.92.11v2.73h-3v.34l2.16.05h2.37c.78,0,1.42.26,2-.49h-2.94Zm136.72,60.13h0V262a7.2,7.2,0,0,0,2.44,5.29,12.85,12.85,0,0,0,4.55,2.54,1.54,1.54,0,0,0,1.08,0,32.52,32.52,0,0,0,3.84-2,7,7,0,0,0,3.06-5.62c.11-2.24.05-4.49,0-6.74a1.2,1.2,0,0,0-1.27-1.39,9.34,9.34,0,0,1-5-2.07c-1.18-.89-1.34-.89-2.49,0a9.45,9.45,0,0,1-5,2.09c-.93.07-1.23.43-1.26,1.37s.08,2.24.08,3.41ZM237.72,147.61v-3.37c0-1-.38-1.38-1.34-1.45a9.3,9.3,0,0,1-4.88-2c-1.26-.93-1.36-.93-2.6,0a9.3,9.3,0,0,1-4.88,2c-1,.08-1.3.43-1.31,1.45v6.62a7.1,7.1,0,0,0,2.4,5.18,12.37,12.37,0,0,0,4.54,2.55,1.74,1.74,0,0,0,1.19,0,27.85,27.85,0,0,0,3.73-2,7.3,7.3,0,0,0,3.14-6.09C237.74,149.52,237.72,148.57,237.72,147.61Zm156.57,52.76h0v-3.62c0-.9-.29-1.22-1.18-1.3a9.89,9.89,0,0,1-5.1-2.15c-1.05-.8-1.36-.8-2.41,0a9.83,9.83,0,0,1-5,2.13c-1.07.12-1.34.44-1.35,1.55v6.24A7.45,7.45,0,0,0,382,208.9a12.67,12.67,0,0,0,4.14,2.26,2.39,2.39,0,0,0,1.45,0,12.48,12.48,0,0,0,3.92-2.14,7.29,7.29,0,0,0,2.78-5.63C394.32,202.36,394.29,201.36,394.29,200.37Z" transform="translate(-175.16 -73.48)" style="fill:#fff"/><path d="M350.85,172.51v4.62a1.77,1.77,0,0,1-1.26,1.92,16,16,0,0,1-2.88.79,16.46,16.46,0,0,1-6.81-.32c-.4-.11-.79-.25-1.18-.4a2,2,0,0,1-1.37-2.13c0-3,0-5.91,0-8.87a1.9,1.9,0,0,1,1.39-2.09,24.55,24.55,0,0,1,3.39-.8,15.47,15.47,0,0,1,5.83.28,10.69,10.69,0,0,1,1.65.56,1.84,1.84,0,0,1,1.25,1.94c-.05,1.5,0,3,0,4.5Zm-13.1-4v3.35a1.63,1.63,0,0,0,1.1,1.75,9.37,9.37,0,0,0,1,.38,16.21,16.21,0,0,0,6.79.35,12.26,12.26,0,0,0,2.85-.83,1.59,1.59,0,0,0,.91-1c.12-1.29.05-2.6.05-3.94a16.22,16.22,0,0,1-12.75,0Zm0,5.09c0,1.13.06,2.18,0,3.21a1.76,1.76,0,0,0,1.31,2,8.07,8.07,0,0,0,1.17.4,16.81,16.81,0,0,0,7.79,0,5.85,5.85,0,0,0,1.72-.69,1.63,1.63,0,0,0,.74-1c.09-1.26,0-2.54,0-3.86a16.09,16.09,0,0,1-12.73,0Zm6.37-8.31c-1.5.25-3,.44-4.43.76a4.77,4.77,0,0,0-1.62.86.62.62,0,0,0-.22.85.58.58,0,0,0,.22.22,4.27,4.27,0,0,0,1.27.74,15.61,15.61,0,0,0,9.56,0,4.27,4.27,0,0,0,1.27-.74.62.62,0,0,0,.2-.87.64.64,0,0,0-.2-.2,4.82,4.82,0,0,0-1.63-.86c-1.45-.29-2.93-.48-4.42-.73Z" transform="translate(-175.16 -73.48)"/><path d="M241.85,252.75v4.62a1.77,1.77,0,0,1-1.26,1.93,15.85,15.85,0,0,1-2.87.79,16.54,16.54,0,0,1-6.93-.35,8.69,8.69,0,0,1-1.39-.54,1.71,1.71,0,0,1-1-1.7v-9.37a1.62,1.62,0,0,1,1-1.69,13.83,13.83,0,0,1,2.72-.85,17.08,17.08,0,0,1,6.83.17,8.68,8.68,0,0,1,1,.27c1.67.59,1.94,1,1.93,2.72v4Zm-13.1-4v3.44a1.56,1.56,0,0,0,1.07,1.64c.38.16.77.3,1.16.42a16.09,16.09,0,0,0,6.8.31,15.51,15.51,0,0,0,2.74-.77,1.28,1.28,0,0,0,1-1.17v-3.86a16.27,16.27,0,0,1-12.77,0Zm0,5.09v3.51a1.42,1.42,0,0,0,.9,1.48,8.12,8.12,0,0,0,1.51.58,17,17,0,0,0,7.9,0,6.68,6.68,0,0,0,1.73-.7,1.37,1.37,0,0,0,.67-.82,30.41,30.41,0,0,0,0-4,16,16,0,0,1-12.71,0Zm6.33-8.31c-1.45.25-2.93.43-4.38.76a4.82,4.82,0,0,0-1.63.86.62.62,0,0,0-.21.85.53.53,0,0,0,.21.21,4,4,0,0,0,1.28.74,15.43,15.43,0,0,0,9.55,0,3.64,3.64,0,0,0,1.19-.65c.51-.41.53-.86,0-1.24a4.65,4.65,0,0,0-1.65-.82c-1.44-.24-2.86-.43-4.36-.67Z" transform="translate(-175.16 -73.48)"/><path d="M283.87,141.84v-4.38a1.83,1.83,0,0,1,1.31-2,15.74,15.74,0,0,1,9.69-.45,9.87,9.87,0,0,1,1.28.48,1.86,1.86,0,0,1,1.23,1.95c0,3-.05,6,0,9a2,2,0,0,1-1.41,2.1,12.48,12.48,0,0,1-4.14.85,15.19,15.19,0,0,1-5.92-.63c-1.75-.57-2-1-2-2.78ZM297,143a16.37,16.37,0,0,1-12.74,0c0,1.15.05,2.23,0,3.3a1.69,1.69,0,0,0,1.18,1.82,10.24,10.24,0,0,0,1.06.37,16.09,16.09,0,0,0,6.66.32A16.85,16.85,0,0,0,296,148a1.27,1.27,0,0,0,1-1.16C297,145.62,297,144.35,297,143Zm-12.74-5.12c0,1.14.06,2.22,0,3.28a1.7,1.7,0,0,0,1.26,1.9,8.07,8.07,0,0,0,1.17.4,16.37,16.37,0,0,0,7.17.16,12,12,0,0,0,2.35-.79,1.2,1.2,0,0,0,.81-1.15v-3.79a15.85,15.85,0,0,1-12.77,0Zm6.27.9a12.51,12.51,0,0,0,5-.73c.61-.24,1.41-.45,1.38-1.25s-.8-1-1.41-1.22a15.69,15.69,0,0,0-9.68,0c-.65.2-1.51.47-1.49,1.3s.88,1,1.53,1.26a12.31,12.31,0,0,0,4.66.66Z" transform="translate(-175.16 -73.48)"/><path d="M308.62,290.62c0-1.45.05-2.91,0-4.37a1.9,1.9,0,0,1,1.39-2.1,15.84,15.84,0,0,1,2.88-.75,16.47,16.47,0,0,1,6.81.36,8.74,8.74,0,0,1,1.39.55,1.71,1.71,0,0,1,1,1.7v9.37a1.85,1.85,0,0,1-1.25,1.82,12.41,12.41,0,0,1-4.5.94,15.13,15.13,0,0,1-5.79-.67c-1.67-.56-1.94-1-1.95-2.72Zm13.13,1.14a16.31,16.31,0,0,1-12.75,0v3.51a1.44,1.44,0,0,0,.91,1.48,8.17,8.17,0,0,0,1.27.5,15.92,15.92,0,0,0,6.66.34,17.35,17.35,0,0,0,3-.84,1.24,1.24,0,0,0,.93-1.2C321.75,294.33,321.75,293.09,321.75,291.76Zm0-5.1a15.89,15.89,0,0,1-12.75,0V290a1.63,1.63,0,0,0,1.12,1.74,9.9,9.9,0,0,0,1.29.46,16.65,16.65,0,0,0,8,0,7.42,7.42,0,0,0,1.5-.59,1.4,1.4,0,0,0,.85-1.39C321.73,289.07,321.75,287.9,321.75,286.66Zm-6.48.89a12.51,12.51,0,0,0,5-.73c.61-.24,1.41-.45,1.38-1.24s-.8-1-1.41-1.23a15.69,15.69,0,0,0-9.68,0c-.65.2-1.51.47-1.49,1.3s.88,1,1.53,1.26a12.35,12.35,0,0,0,4.67.64Z" transform="translate(-175.16 -73.48)"/><path d="M363.23,128.56v2.74l2.91.15v.26H359.7v-.26l2.95-.14v-2.68c-.45,0-.86-.06-1.26-.06h-4.62c-1.54,0-2.12-.62-2.14-2q-.08-3.87,0-7.74a1.84,1.84,0,0,1,1.66-2,1.93,1.93,0,0,1,.34,0h12.6a1.84,1.84,0,0,1,2,1.63,2,2,0,0,1,0,.43v7.61a1.84,1.84,0,0,1-1.53,2.09,2.26,2.26,0,0,1-.52,0h-4.62Zm-.33-11.33h-6c-1.41,0-1.85.45-1.86,1.88v7.12c0,1.42.45,1.91,1.85,1.92H369c1.35,0,1.77-.49,1.78-1.84v-7.25c0-1.42-.43-1.83-1.88-1.84Z" transform="translate(-175.16 -73.48)"/><path d="M295.71,213.72v2.77h3c-.62.68-1.36.42-2,.46s-1.59,0-2.38,0l-2.13-.06v-.33h3v-2.75a7.32,7.32,0,0,0-.93-.09h-4.74c-1.64,0-2.32-.65-2.34-2.24v-7.37c0-1.56.65-2.16,2.25-2.17h12.11c1.65,0,2.27.63,2.27,2.25v7.24c0,1.61-.66,2.27-2.27,2.29C299.59,213.74,297.73,213.72,295.71,213.72Zm-.3-.45h6.12c1.28,0,1.74-.47,1.75-1.72v-7.37c0-1.35-.44-1.82-1.79-1.83H289.37c-1.38,0-1.82.5-1.83,1.93v7.12c0,1.41.46,1.86,1.87,1.87Z" transform="translate(-175.16 -73.48)"/><path d="M206.72,198.78v2.68h2.94c-.58.75-1.32.44-2,.49s-1.58,0-2.37,0l-2.16,0v-.34h3v-2.73a7,7,0,0,0-.92-.11h-4.87c-1.62,0-2.23-.67-2.25-2.2v-7.37c0-1.59.64-2.2,2.21-2.21h12.23c1.56,0,2.19.65,2.19,2.21v7.37c0,1.51-.68,2.18-2.23,2.2s-3,0-4.49,0Zm-.31-.51h6c1.44,0,1.87-.43,1.88-1.84v-7.25c0-1.35-.44-1.82-1.78-1.83H200.39c-1.39,0-1.83.5-1.84,1.93v7.12c0,1.41.46,1.86,1.87,1.87Z" transform="translate(-175.16 -73.48)"/><path d="M343.44,258.91v-3.5c0-.94.33-1.3,1.26-1.37a9.45,9.45,0,0,0,5-2.09c1.15-.87,1.31-.87,2.49,0a9.34,9.34,0,0,0,5,2.07c.88.06,1.26.49,1.27,1.39,0,2.25.08,4.5,0,6.74a7,7,0,0,1-3.06,5.62,32.52,32.52,0,0,1-3.84,2,1.54,1.54,0,0,1-1.08,0,12.85,12.85,0,0,1-4.55-2.54,7.2,7.2,0,0,1-2.44-5.29v-3.12Zm14.43-.06H358V255.6c0-.84-.17-1-1-1.1a9.53,9.53,0,0,1-4.89-2c-1.14-.83-1.13-.83-2.23,0a9.84,9.84,0,0,1-4.88,2c-.91.09-1,.21-1,1.2v6.12a6.89,6.89,0,0,0,3,5.74c1.21.89,2.55,1.84,4,1.83s2.73-.95,3.91-1.81a6.66,6.66,0,0,0,3-4.86C358,261.44,357.87,260.14,357.87,258.85Z" transform="translate(-175.16 -73.48)"/><path d="M237.72,147.61v2.87a7.3,7.3,0,0,1-3.14,6.09,27.85,27.85,0,0,1-3.73,2,1.74,1.74,0,0,1-1.19,0,12.37,12.37,0,0,1-4.54-2.55,7.1,7.1,0,0,1-2.4-5.18v-6.62c0-1,.32-1.37,1.31-1.45a9.3,9.3,0,0,0,4.88-2c1.24-.92,1.34-.92,2.6,0a9.3,9.3,0,0,0,4.88,2c1,.07,1.32.48,1.34,1.45C237.74,145.36,237.72,146.48,237.72,147.61Zm-.42-.06h-.07V144.3a.9.9,0,0,0-.73-1,.83.83,0,0,0-.22,0,9.41,9.41,0,0,1-5-2.06c-1.08-.8-1.07-.8-2.23,0a9.74,9.74,0,0,1-4.89,2c-.84.07-1,.22-1,1.12v6.5a6.56,6.56,0,0,0,2.28,4.83,11.27,11.27,0,0,0,4.21,2.37,1.52,1.52,0,0,0,1.07,0,27,27,0,0,0,3.71-2,6,6,0,0,0,2.6-4.38C237.22,150.3,237.23,148.92,237.3,147.55Z" transform="translate(-175.16 -73.48)"/><path d="M394.29,200.37v3a7.29,7.29,0,0,1-2.78,5.63,12.48,12.48,0,0,1-3.92,2.14,2.39,2.39,0,0,1-1.45,0A12.62,12.62,0,0,1,382,208.9a7.44,7.44,0,0,1-2.71-5.68c-.05-2.07,0-4.16,0-6.24,0-1.11.28-1.43,1.35-1.55a9.83,9.83,0,0,0,5-2.13c1-.8,1.36-.8,2.41,0a9.89,9.89,0,0,0,5.1,2.15c.89.08,1.16.4,1.18,1.3v3.62Zm-.48-.12h0V197c0-.9-.08-1-1-1.11a10.26,10.26,0,0,1-5.09-2.19c-.92-.69-1-.68-1.94.05a10.24,10.24,0,0,1-5,2.14c-1,.11-1,.21-1.06,1.17v6.12a6.79,6.79,0,0,0,3,5.72,21.59,21.59,0,0,0,3.3,1.73,2,2,0,0,0,1.32,0,11.52,11.52,0,0,0,3.9-2.17,6.71,6.71,0,0,0,2.46-5.13A24.13,24.13,0,0,0,393.81,200.25Z" transform="translate(-175.16 -73.48)"/><path d="M337.75,168.54a16.26,16.26,0,0,0,12.73,0c0,1.34.07,2.65-.05,3.94a1.59,1.59,0,0,1-.91,1,12.26,12.26,0,0,1-2.85.83,16.21,16.21,0,0,1-6.79-.35,9.37,9.37,0,0,1-1.05-.38,1.63,1.63,0,0,1-1.1-1.75C337.79,170.81,337.75,169.73,337.75,168.54Z" transform="translate(-175.16 -73.48)" style="fill:#fff"/><path d="M337.75,173.63a16,16,0,0,0,12.74,0c0,1.32.06,2.6,0,3.86a1.63,1.63,0,0,1-.74,1,5.85,5.85,0,0,1-1.72.69,16.81,16.81,0,0,1-7.79,0,8.07,8.07,0,0,1-1.17-.4,1.76,1.76,0,0,1-1.31-2C337.81,175.81,337.75,174.76,337.75,173.63Z" transform="translate(-175.16 -73.48)" style="fill:#fff"/><path d="M344.12,165.32c1.49.25,3,.44,4.42.76a4.82,4.82,0,0,1,1.63.86.62.62,0,0,1,.2.87.64.64,0,0,1-.2.2,4.27,4.27,0,0,1-1.27.74,15.61,15.61,0,0,1-9.56,0,4.27,4.27,0,0,1-1.27-.74.62.62,0,0,1-.22-.85.58.58,0,0,1,.22-.22,4.77,4.77,0,0,1,1.62-.86C341.14,165.76,342.62,165.57,344.12,165.32Z" transform="translate(-175.16 -73.48)" style="fill:#fff"/><path d="M228.75,248.79a16.29,16.29,0,0,0,12.74,0v3.86a1.28,1.28,0,0,1-1,1.17,15.51,15.51,0,0,1-2.74.77,16.09,16.09,0,0,1-6.8-.31c-.39-.12-.78-.26-1.16-.42a1.56,1.56,0,0,1-1.07-1.64C228.78,251.11,228.75,250,228.75,248.79Z" transform="translate(-175.16 -73.48)" style="fill:#fff"/><path d="M228.75,253.88a16,16,0,0,0,12.71,0,30.41,30.41,0,0,1,0,4.05,1.37,1.37,0,0,1-.67.82,6.68,6.68,0,0,1-1.73.7,17,17,0,0,1-7.9,0,8.12,8.12,0,0,1-1.51-.58,1.42,1.42,0,0,1-.9-1.48C228.78,256.24,228.75,255.09,228.75,253.88Z" transform="translate(-175.16 -73.48)" style="fill:#fff"/><path d="M235.08,245.57c1.5.24,2.94.42,4.35.72a4.65,4.65,0,0,1,1.65.82c.53.38.51.83,0,1.24a3.64,3.64,0,0,1-1.19.65,15.43,15.43,0,0,1-9.55,0,4,4,0,0,1-1.28-.74.62.62,0,0,1-.21-.85.53.53,0,0,1,.21-.21,4.82,4.82,0,0,1,1.63-.86C232.15,246,233.63,245.82,235.08,245.57Z" transform="translate(-175.16 -73.48)" style="fill:#fff"/><path d="M297,143v3.87a1.27,1.27,0,0,1-1,1.16,16.85,16.85,0,0,1-2.86.79,16.09,16.09,0,0,1-6.66-.32,10.24,10.24,0,0,1-1.06-.37,1.69,1.69,0,0,1-1.18-1.82c.07-1.07,0-2.15,0-3.3A16.33,16.33,0,0,0,297,143Z" transform="translate(-175.16 -73.48)" style="fill:#fff"/><path d="M284.25,137.9a15.86,15.86,0,0,0,12.74,0v3.79a1.2,1.2,0,0,1-.81,1.15,12,12,0,0,1-2.35.79,16.37,16.37,0,0,1-7.17-.16,8.07,8.07,0,0,1-1.17-.4,1.7,1.7,0,0,1-1.26-1.9C284.31,140.12,284.25,139,284.25,137.9Z" transform="translate(-175.16 -73.48)" style="fill:#fff"/><path d="M290.52,138.8a12.32,12.32,0,0,1-4.66-.67c-.65-.23-1.51-.45-1.53-1.26s.84-1.1,1.49-1.3a15.69,15.69,0,0,1,9.68,0c.61.2,1.39.46,1.41,1.22s-.77,1-1.38,1.25A12.58,12.58,0,0,1,290.52,138.8Z" transform="translate(-175.16 -73.48)" style="fill:#fff"/><path d="M321.75,291.76v3.8a1.24,1.24,0,0,1-.93,1.2,17.35,17.35,0,0,1-3,.84,15.92,15.92,0,0,1-6.66-.34,8.17,8.17,0,0,1-1.27-.5,1.44,1.44,0,0,1-.91-1.48v-3.51A16.27,16.27,0,0,0,321.75,291.76Z" transform="translate(-175.16 -73.48)" style="fill:#fff"/><path d="M321.75,286.66v3.57a1.4,1.4,0,0,1-.85,1.39,7.42,7.42,0,0,1-1.5.59,16.65,16.65,0,0,1-8,0,9.9,9.9,0,0,1-1.29-.46A1.63,1.63,0,0,1,309,290c.06-1.1,0-2.21,0-3.38A15.85,15.85,0,0,0,321.75,286.66Z" transform="translate(-175.16 -73.48)" style="fill:#fff"/><path d="M315.27,287.55a12.32,12.32,0,0,1-4.66-.67c-.65-.23-1.52-.45-1.53-1.26s.84-1.1,1.49-1.3a15.69,15.69,0,0,1,9.68,0c.61.2,1.39.46,1.41,1.23s-.77,1-1.38,1.24A12.41,12.41,0,0,1,315.27,287.55Z" transform="translate(-175.16 -73.48)" style="fill:#fff"/><path d="M362.9,117.23h6c1.45,0,1.87.42,1.88,1.84v7.25c0,1.35-.43,1.83-1.78,1.84H356.89c-1.4,0-1.84-.5-1.85-1.92v-7.12c0-1.43.45-1.88,1.86-1.88C358.9,117.22,360.9,117.23,362.9,117.23Z" transform="translate(-175.16 -73.48)" style="fill:#fff"/><path d="M295.41,213.27h-6c-1.41,0-1.86-.46-1.87-1.87v-7.12c0-1.43.45-1.92,1.83-1.93h12.12c1.35,0,1.78.48,1.79,1.83v7.37c0,1.25-.47,1.71-1.75,1.72Z" transform="translate(-175.16 -73.48)" style="fill:#fff"/><path d="M206.41,198.27h-6c-1.41,0-1.86-.46-1.87-1.87v-7.12c0-1.43.45-1.92,1.84-1.93H212.5c1.34,0,1.77.48,1.78,1.83v7.25c0,1.41-.44,1.84-1.88,1.84Z" transform="translate(-175.16 -73.48)" style="fill:#fff"/><path d="M357.87,258.85c0,1.29.1,2.59,0,3.87a6.66,6.66,0,0,1-3,4.86c-1.18.86-2.48,1.8-3.91,1.81s-2.81-.94-4-1.83a6.89,6.89,0,0,1-3-5.74V255.7c0-1,.11-1.11,1-1.2a9.78,9.78,0,0,0,4.89-2.05c1.1-.81,1.09-.81,2.23,0a9.53,9.53,0,0,0,4.89,2c.84.08,1,.26,1,1.1v3.25ZM350,262.57a13.91,13.91,0,0,0,3.66-3.87c-1.35.95-2.36,2.3-3.6,3.31-.82-.37-1.09-1.33-2-1.46Z" transform="translate(-175.16 -73.48)" style="fill:#fff"/><path d="M237.3,147.55c-.07,1.37-.08,2.75-.23,4.11a6,6,0,0,1-2.6,4.38,27,27,0,0,1-3.71,2,1.52,1.52,0,0,1-1.07,0,11.27,11.27,0,0,1-4.21-2.37,6.56,6.56,0,0,1-2.28-4.83v-6.5c0-.9.13-1,1-1.12a9.74,9.74,0,0,0,4.89-2c1.16-.84,1.15-.84,2.23,0a9.41,9.41,0,0,0,5,2.06.9.9,0,0,1,1,.83.79.79,0,0,1,0,.22v3.25Zm-4.3-.05-.11-.13-3.56,3.44-1.79-1.61-.18.22a7.08,7.08,0,0,0,1.79,1.87Z" transform="translate(-175.16 -73.48)" style="fill:#fff"/><path d="M393.81,200.25v3.12a6.71,6.71,0,0,1-2.46,5.13,11.52,11.52,0,0,1-3.9,2.17,2,2,0,0,1-1.32,0,21.59,21.59,0,0,1-3.3-1.73,6.79,6.79,0,0,1-3-5.72V197.1c0-1,.08-1.06,1.06-1.17a10.24,10.24,0,0,0,5-2.14c1-.73,1-.74,1.94,0a10.26,10.26,0,0,0,5.09,2.19c.89.11,1,.21,1,1.11v3.25Zm-8,3.82c1.66-1.29,3.48-3.23,3.64-4.09l-3.59,3.47-1.74-1.63L384,202a8.08,8.08,0,0,0,1.84,2.07Z" transform="translate(-175.16 -73.48)" style="fill:#fff"/><path d="M350,262.57l-2-2c.93.13,1.2,1.09,2,1.46,1.24-1,2.25-2.36,3.6-3.31A13.76,13.76,0,0,1,350,262.57Z" transform="translate(-175.16 -73.48)"/><path d="M233,147.5l-3.85,3.79a7.08,7.08,0,0,1-1.79-1.87l.18-.22,1.79,1.61,3.56-3.44Z" transform="translate(-175.16 -73.48)"/><path d="M385.84,204.07A8.08,8.08,0,0,1,384,202l.18-.19,1.74,1.63,3.59-3.47C389.32,200.84,387.5,202.78,385.84,204.07Z" transform="translate(-175.16 -73.48)"/></svg>