<svg id="Layer_1" data-name="Layer 1" xmlns="http://www.w3.org/2000/svg" viewBox="0 0 1000 1000"><path d="M999.91,500q0,247.71.09,495.41c0,3.75-.84,4.59-4.59,4.59q-495.4-.15-990.82,0C.84,1000,0,999.16,0,995.41Q.15,500,0,4.59C0,.84.84,0,4.59,0Q500,.15,995.41,0c3.75,0,4.59.84,4.59,4.59Q999.84,252.3,999.91,500Z" style="fill:#e5e4dc"/><path d="M967.62,421.93c-.76-1.59.43-3.54-.93-5q.57-7.9,1.15-15.8C968.67,408.07,969.23,415,967.62,421.93Z" style="fill:#6a6672"/><path d="M247.05,610.43c-9.68-3.86-18-7.42-26.49-10.52a257.15,257.15,0,0,0-55.85-13.23A201.43,201.43,0,0,0,128,584.94c-26.45,1.47-51.81,6.72-73.88,22.68-5.14,3.71-8.66,9.1-14,12.57,3.44-6.62,8.77-11.69,14.43-16.27,20.16-16.31,44-22.73,69.28-25.26,32-3.22,62.28,3.87,91.66,15.9,9.05,3.72,18.17,7.31,26.76,12.05C243.62,607.43,245.32,607.79,247.05,610.43Z" style="fill:#7ea4c1"/><path d="M366.37,202.79a68.11,68.11,0,0,1,21-8,36.31,36.31,0,0,1,8.82-.91c3.66.2,5.84,2.11,5.73,6a7.06,7.06,0,0,1-.11,2c-4.28,12.63-5,26.28-11.54,38.3-2.78,5.12-6.23,10.36-4.45,16.81.42,4-2.65,5.53-5.34,7.31a30.9,30.9,0,0,0-11.11,11.34c-9,11.08-18.32,21.87-26.36,33.71-15.37,22.63-28.27,46.51-37.82,72.18-1.61,4.33-2.78,8.89-5.7,12.64-2.13,1.45-2.56,3.86-3.07,6.07-1.23,5.37-4.36,9.62-7.74,13.72a14.17,14.17,0,0,1-8.77,5.19c-6.05,1-10.54,5.43-15.83,8.12-5.55,2.83-10,2.65-14.5-1.34a84.31,84.31,0,0,1-12.7-32.14c-6.41-34.6-.75-67.24,17.71-97.4,2-3.31,2.53-7.48,6-10.06a74.65,74.65,0,0,0-3.85,29.8c1.09,17.41,3.36,34.6,13.82,49.46,1.06,1.5,2,3.77,4,2.9s.73-3.11.44-4.82c-.45-2.6-1.75-5.05-1.33-7.79,3.23.08,6.12,1.48,9.61,1.3,6.56-.34,11.85-2.22,16.31-7,1.68-1.8,4.13-2.77,6.38-3.87a24.43,24.43,0,0,0,11.52-11.15c3.34-6.39,9-11.41,12.84-17.7A192.68,192.68,0,0,1,348.62,292c4.78-5.53,8.79-12,7.08-20.85a33,33,0,0,1,5.92-26.58c4.06-5.5,6.43-12,7.89-18.74.48-2.24,1.88-3.84,3.26-5.52,3-3.59,5.93-7.15,6.82-12s.48-5.46-4.68-4.82C372,203.79,369,205.13,366.37,202.79Z" style="fill:#90b1ce"/><path d="M909.39,623.73c-9.93,19.88-21.15,38.94-34.77,56.57-10,12.88-20.15,25.56-31.68,37A320.15,320.15,0,0,1,767.77,773a310,310,0,0,1-89.86,31.48,298.32,298.32,0,0,1-62.86,4.69c-56.33-1.6-109.69-15.29-160.89-38.4-33.62-15.18-64.44-34.91-94.41-56.25-30.53-21.76-59.86-45-89.13-68.36-1.95-1.56-4-3-6-4.52-.18-.89,0-1.38,1.06-1,18.4,11.84,35.67,25.25,53.42,38,24.6,17.69,49.47,35,75.54,50.48,40.83,24.19,83.69,43.89,129.78,56,24.57,6.43,49.53,11,74.88,12.32,49.93,2.6,98.43-3.69,144.52-24.55a320,320,0,0,0,75.08-47.14,327.65,327.65,0,0,0,73.82-89.42c.15-.27.47-.44.71-.66,3.51-3.18,4.74-7.82,7.39-11.56a31.4,31.4,0,0,1,5.18-5.92c1-.83,2-2.15,3.4-1.27s1.07,2.55.46,4A4.15,4.15,0,0,0,909.39,623.73Z" style="fill:#4b4f64"/><path d="M343.82,417.93c-9,4.88-18.93,7-28.57,10-1.66.51-4.22,0-4.59,2.82,2.42,1.44,4.82-.06,7.23-.08,4.47,0,6.4,2.16,5.38,6.54a12.88,12.88,0,0,1-1.58,4.16c-7.07,10.47-11.37,22.42-17.9,33.09-1.13,1.85-1.92,3.85-2.9,5.76s-2.45,3.19-4.7,1.42a5.86,5.86,0,0,1-.47-4.17c1.1-5.81.37-11.67.48-17.5a154.71,154.71,0,0,1,4.24-35.34c3.44-13.37,6.52-26.82,10.92-39.95a358.53,358.53,0,0,1,30.93-68.62c2-3.44,3.91-7,6-10.36,6.34-9.5,12.64-19,20.54-27.36,5-7,12.24-12,17.3-19,1.07-1.37,1.94-2.93,3.6-3.74,2.77-1.27,5.56-4.43,8.62-2s1,6,.15,8.88c-2.78,9.93-6.7,19.51-8.71,29.69-1.06,5.41-5.06,8.38-10.37,9.59-1.24.28-2.68,0-3.63,1.14a31.49,31.49,0,0,0-5.92,2c-1,.56.47.58.78.88,6,2.33,7.87,5.53,6.82,11.87-.56,3.44-1.05,7-2.94,10-4.84,7.6-6.68,16.17-8.32,24.78-1.08,5.65-3.66,10.55-6.54,15.37L332,381.43l.36,1,10.37-2.57c1.74.87,3.18-.38,4.76-.67,5.75-1.06,9.48,2.26,8,7.85-2,7.53-4.46,14.93-5.5,22.68C349.45,413.7,345.1,414.64,343.82,417.93Z" style="fill:#8ba7c6"/><path d="M366.37,202.79c4.19.84,8.18-1.08,12.34-.91,3,.12,3.78.88,3,4.3-1.56,6.75-5.2,11.92-9.6,17-2.66,3.06-2.55,7.67-4,11.5a47.39,47.39,0,0,1-6.1,11.83c-6.25,8.41-5.95,17.68-4.86,27.1a16.29,16.29,0,0,1-1.8,10.36c-3.36,6.21-8.17,11.1-12.47,16.51-5.8,7.31-10.42,15.59-15.26,23.62A34.65,34.65,0,0,1,322,331a15.59,15.59,0,0,0-4.56,7c-1.3,4.6-5.36,6.62-9.21,8.55-4.79,2.4-9.33,5.06-12.9,9.16a5.6,5.6,0,0,1-4.76,2.2,29.25,29.25,0,0,0-9.86.91c-3,.92-4.87-1.46-7-2.92-2.05-4.05-2.27-8.61-2.72-12.9-1-9.47-1.91-19-1.22-28.57,0-.58.55-1.13.84-1.7,2.63,4.79,2.12,10.27,3.4,15.36.39,1.53,0,3.78,2,4.13s2.69-1.65,3.6-3c1.58-2.33,3-4.75,4.54-7.13,2.69-4.21,5.64-7.4,11.17-8a8.72,8.72,0,0,0,7.12-6.27c.42-1.26.77-2.57,2.26-3,3.22.51,2.9-1.69,2.95-3.74.2-8.28-.5-16.56.89-24.85,3-17.72,9.34-34.07,21.65-47.1A114.53,114.53,0,0,1,366.37,202.79Z" style="fill:#96b6d1"/><path d="M249.62,425.91c.27-.17.72-.55.79-.49,7.35,6.19,13.16.46,19.16-2.62A83.33,83.33,0,0,1,282,417.21c6.8-2.19,10-8.83,12.61-15.19.95-2.28,1.39-4.76,2.17-7.12.28-.86.64-2.12,2-.94,1.25,2.2.07,4.22-.61,6.19a222.67,222.67,0,0,0-11.15,56.44c-.13,1.72.16,3.81-2.26,4.42a1.87,1.87,0,0,1-.54-1.34,1.89,1.89,0,0,0,.15,1.34c1.62,3.66-.29,7.2-.33,10.81-.07,6.31.24,12.63-.19,19a14.86,14.86,0,0,1-.34,1.61c-.87,2.94-.42,6-.47,8.94-.11,6.7-.76,7.43-6.9,9.82-4.83,1.88-9.12.36-13.5-1.31-22.2-18.33-39.09-40.32-46.21-68.7-4.06-16.18-3.62-32.58-.46-48.92.66-3.39,1.35-6.79,2.27-10.23a63.55,63.55,0,0,0,4.35,18.68c4,10.32,10.78,18.53,18.65,26,3.38,3.19,7.07,6,10.44,9.22,1.31,1.24,2.87,2.67,4.2,1.44,1.59-1.49-.82-2.35-1.62-3.38C252.39,431.48,250.28,429.11,249.62,425.91Z" style="fill:#82a0c2"/><path d="M481.62,736.91c25.14,7,50.52,13.15,76.43,16.31,25.19,3.06,50.54,4.76,76,3.43,49.16-2.56,95.41-15.15,138-40.22,11.83-7,23.39-14.39,35.13-21.64,1.41,2.26-.86,3-1.82,3.93-12.5,11.79-26.67,21.32-41.4,30-31.11,18.34-64.78,29.61-100.38,34.88A341.4,341.4,0,0,1,587,766c-36-2.76-70.67-11.27-105-21.84-.13,0-.21-.24-.32-.37-5.14-2.59-10.83-3.79-16-6.3a19.05,19.05,0,0,1-3.14-1.46c-1-.75-1.71-1.71-1-3s1.67-.62,2.65-.43c4.86,1,9.31,3.23,14.15,4.26A4.51,4.51,0,0,0,481.62,736.91Z" style="fill:#4e5165"/><path d="M296.69,481.79c1.13-.06,2.32.13,2.89-1.32,4-10.31,11-19.11,14.68-29.64,1.51-4.37,5.63-7.34,7.23-11.8,2.09-5.83.91-7.46-5.2-7.27-1.88.06-4,.83-5.63-1,12.58-1.56,24.68-5.34,37.06-7.83,8.59.33,10.36,2.66,8.44,11.2-1.28,5.66-2.63,11.31-3.37,17.07-1.88,14.6-10.3,25.18-20.87,34.5-1.46,1.29-3.41,2.14-4.13,4.17-5.52,4.24-12,6.64-18.21,9.64-1.53.74-4,.46-3.93,3.25,3.58,2.7,2.53,5.66.4,8.6a11.06,11.06,0,0,1-3.07,2.51c-1.71,1.09-3,3.94-5.35,2.58-2-1.18-1.27-3.93-1.31-6,0-2.82.08-5.65-.82-8.38-.7-5.24-.36-10.49-.32-15.74C295.19,484.67,295.32,483,296.69,481.79Z" style="fill:#7c94b7"/><path d="M766.62,600.79a345.25,345.25,0,0,0-62.86,28c-15.21,8.74-30.51,17.35-46,25.66a251.47,251.47,0,0,1-85.24,28.23,26.7,26.7,0,0,1-4,0c-1.77-.89-3.57,0-5.35-.1a1.75,1.75,0,0,1-1.88-1.61v0a1,1,0,0,1,0-.24c0-1,.86-1.2,1.74-1.38,1.86-.36,3.84-.34,5.45-1.57,11.08-3.1,22.24-6,33.23-9.35,27.86-8.59,53.06-22.8,78-37.45,22.37-13.12,44.75-26.25,69.46-34.7a11.3,11.3,0,0,1,1.43-.28c5.66-.22,10.91-2.4,16.34-3.67A166.16,166.16,0,0,1,813.77,588,47.3,47.3,0,0,1,826,590c1,.32,1.88.8,1.78,2s-1.06,1.62-2.08,1.74a43.07,43.07,0,0,1-7,.12A158,158,0,0,0,770.91,599C769.46,599.34,767.62,599.23,766.62,600.79Z" style="fill:#48699e"/><path d="M521.62,710.79c21.25,1.21,42.56,1.85,63.78.56a338.13,338.13,0,0,0,94.35-19C716.34,679.2,750,660.84,781.37,638.1c1.84-1.33,3.55-2.92,6.48-3.21-1.08,4-3.92,6.33-6.57,8.53-37.92,31.44-80.39,53.81-128.46,65.59a389,389,0,0,1-115.28,10.62c-8.08-.46-16.25-.78-24.2-2.72-1.61-1.15-3.51-1-5.35-1.23-1.65-.15-3-.7-2.71-2.68.26-1.67,1.27-2.35,3.13-2.36C512.76,710.63,517.15,712.12,521.62,710.79Z" style="fill:#6b6191"/><path d="M262.62,509.79c1.81-1.78,3.45,0,4.94.49,4.8,1.62,8.7-.76,12.73-2.49,1.94-.83,1.17-2.85,1.35-4.42.43-3.84-1-7.86,1-11.55a4.36,4.36,0,0,1,1.34,3.61,257.34,257.34,0,0,0,4,53.3c-1,5.43-4.07,7.44-9.5,5.63s-11-3.43-16-6.42c-1.8-1.08-3.64-2.32-6-2.06-12-7.8-21.85-17.44-27.63-31,8.8,7.91,19.74,9.35,30.86,10.55-13.62-4.92-26.12-11.37-35.63-22.74-9.83-11.75-12.16-25.78-13.58-41.07,11.78,27.28,31.58,44.81,58.41,55.33Z" style="fill:#6981af"/><path d="M375.81,303c-.43-2.28,1.74-1.59,2.49-1.77,6.16-1.47,10-5,10.84-11.39,1.14-8.28,4.67-15.84,6.92-23.79.64-2.23,1.22-4.47,1.9-6.69.53-1.74,1.54-3.75-.24-5s-3.49.18-5,1.16c-1,.62-1.85,1.42-3.11,1.39,0-4.07,4-5.28,5.82-8,6.42-4.77,11.49-11,17.54-16.16,8.75-7.49,10-17.81,10.53-28.44.24-5.42-1.55-8.27-6.71-10a28.89,28.89,0,0,0-8.81-1.16c-1.93,0-4,.41-5.57-1.36a32.36,32.36,0,0,1,22,1.92c5.84,2.56,11.52,5.54,15.28,11.07,1.26,3-.38,5.25-2,7.24-10.09,12.22-11.75,27.14-13.61,42-.76,6.09-1.32,12.21-2.4,18.26a53,53,0,0,0-.9,9.4c0,5.38-2.41,9.95-5.8,14a9.39,9.39,0,0,1-7,3.26c-2.73.14-5.51.05-8.14,1.05C391.92,302,383.78,301.79,375.81,303Z" style="fill:#8199bc"/><path d="M304.7,304.72c-1.27,7.41-5.76,10.58-13.15,11.5-4.59.57-5.39,6.18-8.15,9.32-2,2.32-2.83,5.6-5.38,7.64-2.28,1.82-3.93,2.56-4.59-1.43-1.06-6.35-2.62-12.61-2.83-19.09-.13-22.6,8.73-41.65,22.53-59.06,7.65-9.65,16.58-17.92,25.5-26.37-5.79,8.79-11.15,17.82-13.83,28C300.48,271.67,299.77,288.22,304.7,304.72Z" style="fill:#9bbdd6"/><path d="M284.78,460.94c1.22-9,2.66-17.95,3.59-27,1.44-13.89,6.54-26.79,10.4-40,6.63-15.37,12-31.26,19.85-46.12,12.05-22.85,25.65-44.63,42.59-64.25,2.47-2.87,5.27-5.48,7.5-8.57,3.15-4,6.24-8,10.91-10.41a2,2,0,0,1,.59,1.23c-2.41,4.66-7.33,7.13-10.06,11.51a239.16,239.16,0,0,0-21.31,28,372.08,372.08,0,0,0-43,91.27,66.92,66.92,0,0,0-2.06,7.19,243.1,243.1,0,0,0-8.8,44.79c-1,7-1.57,14.13-2,21.23-.44,8.26-1.38,16.5-1,24.8.56,11.72,1,23.46,2.54,35.11.25,1.83.55,3.65-1,5.08l-2.09-3.11c2,14.66,5.23,27.87,7.22,41.33-1.64-2.81-2-6.12-3.84-8.74-1.13-1.62-1,.09-1.22.59-2.4-.32-2.51-2.44-2.94-4.08a225.08,225.08,0,0,1-6.94-43.46c-.57-8.61-.3-17.21-.43-25.82C283.14,481.29,283.22,471.08,284.78,460.94Z" style="fill:#eceff0"/><path d="M399.76,299.9a1.13,1.13,0,0,1-.48-.11,3.18,3.18,0,0,1-.58-.58c2.12-.88,4.42-.49,6.66-1,8.33-2,13.88-6.51,13.89-14.68,0-7.36,2.13-14.28,2.44-21.51.5-11.23,2.93-22.23,5.47-33.23,1.46-6.29,4.84-11.62,8.71-16.63a18.18,18.18,0,0,0,3.75-7.37A27.2,27.2,0,0,1,446.4,219c.17,7.72,1,15.38.3,23.17-1.48,17-5.58,33.17-14.69,47.82a2.75,2.75,0,0,0-.58,1.83c-4.64,4.81-10.9,5.73-17,7A61.21,61.21,0,0,1,399.76,299.9Z" style="fill:#748ab2"/><path d="M359.69,367.84c-.25-.39-.81-1-.71-1.15,6.2-8.51,6.21-19.06,9.33-28.57a28.81,28.81,0,0,1,3.57-8.11c3.09-4.34,3.91-9.46,4.69-14.52.72-4.69-2.77-7.12-5.9-9.62,9-.79,18-2.4,27.08-1.88,4.39.49,7.91,2.24,9.49,6.7,1.5,4.21.3,6.41-4,7.7-1.22.36-2.67.24-3.57,1.43-2.81,1.89-6.48.74-9.7,2.89l6.67.29c-.21,2.47-2.38.79-3.07,1.3,3.17.8,3.73,3.39,3.1,6-1.71,7.12-2.89,14.35-5.16,21.34-1.29,4-5,5-7.84,7.17Z" style="fill:#829cbd"/><path d="M402.36,191.79c2,0,4,0,6,.11,15.31.74,18,4.49,16.18,19.15-1.35,10.75-5.89,19.25-14.4,26-5,4-8.72,9.58-14.45,12.85-2.81,1.8-4.84,4.43-7.22,6.7-.8.76-1.37,2-2.82,1.29-3.58-1.81-2.2-4.84-1.29-7.19C387,243.78,390,237,393,230.22c1.51-3.35,2.73-6.65,2.69-10.44-.05-5.22,2.81-9.74,4-14.67,2.23-8.89,1.21-10.17-7.9-10.2-1.49,0-3-.06-4.48-.09A32.3,32.3,0,0,1,402.36,191.79Z" style="fill:#8ca9c7"/><path d="M327.79,489.89c-1.24-2.26,1.14-2.71,2-3.68,5.08-5.45,10.7-10.37,15-16.61,5.17-7.55,6-16.33,7.82-24.87.61-2.9,1.14-5.83,1.84-8.71,2.35-9.67,2.37-9.66-6.74-13.07a254.35,254.35,0,0,0,38-12c4,2.88,4.4,6.18,1.78,12.14C381.81,436,375,448.19,365.7,458.9h0c-3.7,4.45-8.11,8.22-12.06,12.43C346.11,479,336.62,484,327.79,489.89Z" style="fill:#6c80a9"/><path d="M658.62,593.68a291.25,291.25,0,0,1,77.75-47.25c16.66-6.82,33.85-11.4,52-11.57,3.11,0,6.32-.59,9.31.87,1.14,2.33,3,3,5.55,3,1.86,0,4.42-1,5.29,2-36.16-2-68,11.07-98.65,28.29-12.47,7-24.43,14.79-36.34,22.67-3.68,1.13-6.28,4-9.54,5.81-1.52.84-3.35,1.75-5,.19C657.69,596.43,657.4,595.09,658.62,593.68Z" style="fill:#6488b3"/><path d="M658.62,593.68c-.25,4.2,2.07,4.37,4.94,2.9,2.47-1.26,4.72-3,7.07-4.45.89-.57,1.64-1.87,2.89-.55-29.85,22-60.14,43.31-95.67,55.54-3.73,1.28-7.54,2.31-11.31,3.46-2.76-.83-5.19.62-7.64,1.33-8.27,2.38-16.68,4.09-25.12,5.67-2.72.51-5.51.36-5.85-3.48.3-1.72,1.57-1.87,3-1.82,4.11-1.41,8.58-1.57,12.49-3.68,12.55-4.48,25.62-7.38,38-12.43,25.57-10.45,49.3-24.22,72.13-39.66C655.09,595.43,656.44,593.79,658.62,593.68Z" style="fill:#5678a8"/><path d="M317.69,539c-3.92,3.57-8.36,6.76-9,12.67-1.26,3.43-3.49,2.11-5.2.75a6.9,6.9,0,0,1-2.52-7,2.26,2.26,0,0,1,1.81-1.54c6.82-.77,10.17-5.61,13.26-11,4.15-7.21,8-14.57,12-21.87a22.36,22.36,0,0,0,1.68-4.16c2.08-7.05,1.12-8.23-6.07-7.53-1.25.12-2.77.61-3-1.46l29-13.06c3-.06,5.14-2.08,7.6-3.32,3.44-1.75,5.89-1,6.28,2.91.49,4.93.71,9.94-2.25,14.48-7.66,11.91-16.9,22.19-28.93,29.91C327.33,532,322.2,535.06,317.69,539Z" style="fill:#677aa8"/><path d="M343.82,417.93c-3.48-1.1-.41-2.49.15-2.79,4.88-2.57,5.37-7,5.76-11.79.41-5,2.51-9.61,4-14.35,2.25-7.14,0-9.81-7.33-8.55-1.33.23-2.6.76-3.67-.51l36-9c6.73,3.22,8.79,7.77,6.53,15.07-1,3.34-2.39,6.58-3.47,9.91-1.45,4.53-6,5.46-9.14,8.06-1.24,1-3.22,1.06-3.88,2.89A196.17,196.17,0,0,1,343.82,417.93Z" style="fill:#788fb6"/><path d="M320.7,497.92c1.64,1.79,3,.09,4.47-.34,4.69-1.4,7.19.78,6.61,5.49-1.09,8.89-7,15.56-10.55,23.32-1.64,3.59-4.06,6.82-6,10.28-3,5.36-7.17,8.6-13.6,8.13-2.9-.47-2.77-3.14-3.18-5a163.73,163.73,0,0,1-3.26-32c0-1.8,0-3.69,1.51-5.06,2.14,4.19.15,8.76,1.22,13,9.22-5.58,9.87-6.67,7.72-13Z" style="fill:#6f86ae"/><path d="M296.71,502.79c-.21,13.61.75,27.1,4,40.36a7.13,7.13,0,0,0,.91,1.64c.16,2.49.64,4.92,2.41,6.76,1.38,1.43,3.06,1.94,4.65.12,1.86.52,2.63-1,3.71-2a52.77,52.77,0,0,1,14.34-9.76c1.72.29,4-2.27,5.13,1l-12.24,9.66a.56.56,0,0,0-.24.38c.08.75.68.43,1.09.5,2.86.56,4.16,3.76,7.09,4.19a1.31,1.31,0,0,1,.12,1c-.72,3-4,4.73-4.11,8.07l-2.18,1.52c2,1.26,4.58-.22,6.29,1.46-2.9,2.88-7,.1-10.05,2.09a13.56,13.56,0,0,0-6.87,2c-3.5,3.85-4.56,3.78-8.17-.53-3.2-15.86-7.37-31.49-9.14-47.7-2.69-24.7-2-49.25.67-73.84a3.09,3.09,0,0,0-.42-1.9,220.61,220.61,0,0,1,9-45c3.24,1,1.8,3.38,1.33,5.18-1.33,5.19-2.56,10.37-2.37,15.78-1.89,12-4.17,23.84-4,36-1.33,6,.37,12.08-.91,18v4Q296.69,492.27,296.71,502.79Z" style="fill:#576ea0"/><path d="M665,513.43c-8.1-.11-16.09-1.56-24.23-1.59-26.59-.09-52,5.71-76.59,15.31-32.56,12.72-62.84,29.92-92.72,47.89-25.74,15.48-52.79,28.08-81.64,36.74-1.38.42-2.74,1.38-4.57.43,12.45-4.13,24.39-9,36.29-14,18.42-7.73,35.19-18.46,52.34-28.5,29.33-17.16,58.09-35.39,90-47.69a216.17,216.17,0,0,1,53.21-13.46C633.46,506.7,649.22,509.25,665,513.43Z" style="fill:#799cbb"/><path d="M459.62,603.73c19.67-8.75,39.84-16.22,60-23.82,25.24-9.52,51.3-13.89,78.24-12.14a98.17,98.17,0,0,1,40.76,11.66c-6.26-1.48-12.39-3.49-18.75-4.55-26.75-4.43-53-1.17-79,5.26-27,6.67-52.31,18.35-78.63,27-1.56.52-3.13,1-4.7,1.47C453.62,605.06,459.1,605.43,459.62,603.73Z" style="fill:#6b6392"/><path d="M909.39,623.73c-2.13-2,1.17-4-.41-6.36a35.26,35.26,0,0,0-10.47,12.32c-1.21,2.27-1.58,5.48-5,6,6.25-11.88,12.84-23.6,18.69-35.68a640.3,640.3,0,0,0,38.42-99.47,3.27,3.27,0,0,1,.48-.83c2.52-1.33,2-5.43,5.46-5.92-2.4,15.19-7.17,29.76-11.84,44.35a607.09,607.09,0,0,1-34.2,83.93A19.36,19.36,0,0,1,909.39,623.73Z" style="fill:#454656"/><path d="M242.35,646.6c-62.43-16.44-119-10.82-163.51,41.77,12-21.3,30-36.47,52.11-45.93C163.88,628.37,218.23,631,242.35,646.6Z" style="fill:#6f638e"/><path d="M256.62,545.93c1.39-2,2.75-.36,3.8.27,5.9,3.5,12.53,5,18.92,7.16,3,1,6.84,1.46,7.4-3.61,2,0,1.8,1.59,1.93,2.83.72,6.84,2,13.49,5.18,19.7,1.24,2.45.85,4.65-2.12,5.52-4.62,1.35-9.07,4.23-14.19,1.9-.6-1.34-1.93-.6-2.85-1,.12-2.24,1.93-1.63,3-1.87-2.3-1.63-4.62-3.55-7.12-5.2,1.33-1.54,3.54-.15,5.42-1.88-5.75-1.51-11.59-1.64-16.41-4.86-3.56-3-8.34-3.75-12-6.61-1.83-1.43-4.35-2.32-3.55-5.21.89-3.17,3.52-2.24,5.76-1.9a2.55,2.55,0,0,0,1.89-.23L278.85,558l.4-1Z" style="fill:#596da5"/><path d="M383.62,358.79c10.36-7.19,8.48-19.36,11.87-29.36,1.22-3.59-1.47-5-5.58-4.65,2.53-1.74,5-.08,6.68-1.82,10.35-.92,20.91-.81,30.61-6.71C417.78,339.19,409.86,350.08,383.62,358.79Z" style="fill:#728ab1"/><path d="M303.74,571.68c2.3,2.68,4.66,2.11,7,.12-1,2.44.36,4.57,1,6.72,7.92,27,19.61,52.22,36.56,74.85,1.44,1.92,3.65,3.33,4.53,6.12-4.86.91-8.21-1.41-11.21-4.21a57.19,57.19,0,0,1-10-13c-9.18-15.46-17.3-31.44-23-48.54-.77-6.27-4.57-11.63-5.29-17.94C303.19,574.33,302.36,573,303.74,571.68Z" style="fill:#45518c"/><path d="M458.5,632.69c19.64-5.32,39.26-10.71,58.93-15.94,13.67-3.63,27.52-6,41.74-6.06,4.35,0,8.48,1,12.74,1.53-29.43.89-56.28,13.1-84.52,19.06-10.54,2.22-21,5-31.84,5.41C454,633.43,457.49,634,458.5,632.69Z" style="fill:#6c94b8"/><path d="M521.62,710.79c-4.1,2-8.43.71-12.63.75-1.59,0-2.7,0-2.86,1.69-.18,1.89,1.49,1.27,2.49,1.5,2.31.52,4.59,1.26,7,1.74l-2.3.43c-24-2.44-47.35-7.82-70.41-14.63-8.21-2.42-16.57-4.45-24.25-8.4-.67-1-2.46-1.29-2-2.84.41-1.37,2-.5,2.88-1C452.53,701.92,486.62,708.43,521.62,710.79Z" style="fill:#635984"/><path d="M368.74,406.88c-.83-2.52,1.63-2.52,2.7-2.93,9.41-3.63,10.64-12.48,13.1-20.41,1.76-5.65-1.91-9.3-5.84-12.59,10.8-3.52,22.1-5.88,31.43-13.78C407,374.28,387.62,397.33,368.74,406.88Z" style="fill:#667ba6"/><path d="M277.5,579.7c5.27.52,10-1.28,14.69-3.34,1.79-.77,1.45-1.53.9-2.52A46.7,46.7,0,0,1,287.44,551c0-.42-.48-.83-.74-1.25q-1.56-11-3.1-22.09c-1.7-11.9-.51-23.87-.91-35.8v-.05q.38-.69.81,0c-.16,24,1.94,47.76,9.14,70.83a18.48,18.48,0,0,0,.95,2.25c3.4,14.91,9.3,28.9,15.62,42.74a32.81,32.81,0,0,1,2.23,5.85c-5.48-5.88-7.39-13.61-10.78-20.55-.72-1.47-1.17-3.07-1.75-4.61-3.62-9.66-3.65-9.68-13.8-7.74-7.34,1.4-13,5.5-17.7,11.13-2.46,3-1.81,6.4-1,10.18C259.45,593.27,264.84,582.92,277.5,579.7Z" style="fill:#465487"/><path d="M206.62,614.94c-9-1.16-17.78-3.51-26.87-4.35-25.58-2.35-51.06-4.2-75.87,4.94a1.32,1.32,0,0,1-1.42-.51c32.9-14,66.42-12.87,100.28-3.67C203.24,613.43,206.88,612.06,206.62,614.94Z" style="fill:#6e92ad"/><path d="M531.62,652.79c-1.09.08-2.28-.15-3,1-4.88,3.49-10.79,2.93-16.26,4a171.43,171.43,0,0,1-20.2,2.13c3.7-.11,7-.82,10.31-.37,1.63.22,3.86-.35,4.22,2.31L505,662c-3.38,1-6.91-.27-10.29.7a301.9,301.9,0,0,1-80.43-8c2.3.16,4.6.29,6.9.48,2.47.21,5,.39,7.42.75,20,2.93,40.14,2.22,60.21,1.7,12.57-.33,25.08-2.69,37.46-5.22,1.77-.37,3.57-.6,5.36-.89a.86.86,0,0,1,.1,1.2h0Z" style="fill:#305286"/><path d="M766.62,600.79a2.66,2.66,0,0,1-.49-.1c-.46-.17-1-.54-.24-.83,5.12-2,10.52-2.83,15.82-4.08,13-3.06,26.24-3.28,39.5-3,1.66,0,3.32,0,5-.13.25,0,.48-.36,1.41-1.1-4.72-2.19-9.44-2.39-14-2.64-20-1.06-39.6,1.71-58.8,7.31-1.46.43-2.84,1.08-4.14-.27,26.22-8.23,52.74-12.65,80.08-6.17,8.4,2,16.42,5,23.37,10.5a117.58,117.58,0,0,0-30.58-5.66,110.45,110.45,0,0,0-18.9,0A195.78,195.78,0,0,0,766.62,600.79Z" style="fill:#3b598c"/><path d="M331.88,541c-1.35-2.12-3.7.64-5.14-1,8.88-5.53,18.24-10.17,25.88-17.53,12-11.66,17-19,25.62-38.84,1.09,3.05-.29,5.63-1,8.1A87.06,87.06,0,0,1,363,520.79c-3.75,5-9.13,7.57-14.24,10.6C343.15,534.69,337.49,537.79,331.88,541Z" style="fill:#434572"/><path d="M303.74,571.68a68.62,68.62,0,0,0,4.14,15.75c.74,1.94,2.86,3.94.77,6.31-5.69-11-7.3-23.15-10.62-34.83-1.75-6.19-2-12.68-4.12-18.79-.56-1.63-.26-3.55-.36-5.34A350.25,350.25,0,0,1,290.92,484c.36-12.1.81-24.21,2.8-36.19,1.9,2.36,1.17,5.18.81,7.65-2.48,17.18-2.31,34.47-1.64,51.7.66,17.05,3.91,33.82,8.12,50.38C302.19,562.19,302.84,567,303.74,571.68Z" style="fill:#394e7e"/><path d="M399.62,319.79c-.61-1.65,1-1.44,1.64-1.68,2-.77,4.85-.25,5.3-3.37a7.93,7.93,0,0,0-3.35-7.74,44.84,44.84,0,0,0-5.48-3c8.19-1.39,16.58-.28,24.77-2,4.09-.86,7.75-2.75,11.7-4.07C431.16,307.37,415.62,317.21,399.62,319.79Z" style="fill:#6a81ab"/><path d="M317.69,539c3.22-4.89,8.58-7.16,13.19-10.16a92.24,92.24,0,0,0,30.59-32.53c2.26-4,1.21-8.67.68-13-.2-1.67-1.81-2.89-4.2-1.47s-4.8,4-8.26,3c9.1-4.75,17.65-10.21,23.55-19.69C375.76,487.79,348.46,523.61,317.69,539Z" style="fill:#525e8e"/><path d="M481.62,736.91c-2.83,2-5.36-.23-7.92-.76-3.79-.78-7.36-2.58-11.62-3,.2,2.78,2.52,3,4.07,3.68,4.23,1.79,8.6,3.24,12.89,4.9,1,.4,2.68.12,2.63,2-7-1.19-13.37-4.26-19.78-7.06-19.36-8.43-38.93-16.35-57.27-26.88a19.23,19.23,0,0,1-5.5-4.18c7.84,3.6,15.64,7.31,23.54,10.77C441.74,724.79,461.5,731.3,481.62,736.91Z" style="fill:#30324c"/><path d="M506.62,661.79c-3.9-2-8.08-.53-12.1-1-2.72-.29-5.52.4-8.24-1,14.15-1.79,28.25-3.67,42.27-6,.44,3.27,2.71,3.21,5.17,2.86A216.71,216.71,0,0,0,562,650.53c1.56-.44,3.07-1.38,4.58.09-13.92,3.7-27.78,7.68-42.08,9.72C518.54,661.14,512.62,662.28,506.62,661.79Z" style="fill:#446693"/><path d="M327.62,555.79c-4.46,2.16-4.78-2.69-7.09-4.19,9.69-5.26,18.89-11.55,29.85-14.11,6.77-1.58,13.26-1.07,19.26,3C352.43,537.08,340.08,546.6,327.62,555.79Z" style="fill:#46518b"/><path d="M956.51,493.79c-1.59,2.19-2.2,5.28-5.46,5.92,3.83-15.3,8.21-30.47,10.88-46A341.66,341.66,0,0,0,966.7,417c2.49,1.27,1.1,3.26.93,5-.47,20.65-4.62,40.78-8.57,60.94C958.34,486.54,957.37,490.15,956.51,493.79Z" style="fill:#333143"/><path d="M251.62,550.91c-.84,1.09-2,.82-3.19.9-1.38.1-3.2-.54-3.62,1.59s1,2.9,2.57,3.72c4.19,2.28,8.34,4.61,12.5,6.93.07,0,.05.33,0,.46s-.22.24-.34.35c-16.1-6.19-30.06-14.73-35.65-32.47C230.16,543,240.62,547.43,251.62,550.91Z" style="fill:#4e5c8e"/><path d="M459.62,603.73c.52,2.11-4.53,1.91-2,4.85-13.8,4.29-27.66,8.36-42,10.71-3.92.64-7.88,1.08-11.83,1.61-1,.3-2.16.87-2.07-1,19.23-3.11,37.68-9.11,55.9-15.77A12.21,12.21,0,0,1,459.62,603.73Z" style="fill:#534a76"/><path d="M323.62,564.79a5.73,5.73,0,0,1,1.46-6c.85-.71,1.76-1.35,2.65-2,5.2-.69,10.4-1.46,15.62-2.06s9.31,1.35,12.93,6.84c-6.88-4.54-12.52-2.28-18.43-.09C333.28,563.06,328.35,563.67,323.62,564.79Z" style="fill:#495795"/><path d="M458.5,632.69c0,.4,2.4.33.39,1-1.77.57-3.09,1-3.34,3-9.93,2.12-20.06,2.45-30.13,2.79-12.61.42-25.25.1-37.87.1v-1.79H401.1A287.19,287.19,0,0,0,458.5,632.69Z" style="fill:#4c5b82"/><path d="M419.51,690.06c-2.84.7-2,2.23-.88,3.85a294.56,294.56,0,0,1-53.79-27C382.71,675.52,400.75,683.65,419.51,690.06Z" style="fill:#453860"/><path d="M270.52,571.6c5.14-1.47,5.58,6,10.6,4.86-2.09,2.15-4.8.3-6.47,2.21-2.38.68-4.76,1.37-7.15,2-4.9,1.39-8.52,4.06-9.21,10.73C256.81,582.43,262.14,574.43,270.52,571.6Z" style="fill:#465487"/><path d="M206.62,614.94c-.84-1.69-3.79-1.1-3.88-3.59,22.74,6,43.52,16.28,63,29.31l-1.06,1C246.39,630.43,227.56,620.43,206.62,614.94Z" style="fill:#687392"/><path d="M365.7,458.88c2.89-6,7.62-10.7,11.11-16.29,4.18-6.67,7.07-13.92,10.2-21,1.49-3.4,2-7.43-1.3-10.61a36.71,36.71,0,0,0,9.79-7.88c.22,4.16-1.87,6.78-2.91,9.66-5.42,15-12.51,29.15-22.46,41.73C368.83,456.09,367.82,458,365.7,458.88Z" style="fill:#475686"/><path d="M431.47,291.79c-1.49-1.24,0-2,.5-2.87a105.35,105.35,0,0,0,13.81-46.13c.47-6.61,1.21-13.11-.08-19.69-.27-1.36-.62-3,.74-4.19C450.62,245.1,445.87,269.43,431.47,291.79Z" style="fill:#51628c"/><path d="M808.5,540.62c-2.19-1.66-4.77-1-7.1-.84-3.35.24-4.45-.93-3.74-4.1a95.3,95.3,0,0,1,36.68,8.75C825.78,542.7,817.25,541,808.5,540.62Z" style="fill:#4e7093"/><path d="M568.49,677.7a2,2,0,0,1,.47.15c.21.18.41.37.61.57l-7.7,2c1.82,2.61,5,.2,6.66,2.21-10.31,2.12-20.74.66-31.15.92C547.55,680.43,558.09,679.43,568.49,677.7Z" style="fill:#2f4c85"/><path d="M317.62,569.79c2.84-3.14,6.68-1.46,10.05-2.09,9.56,1.77,12.26,3,16.6,7.86C336,571,326.62,571.23,317.62,569.79Z" style="fill:#364078"/><path d="M401.7,619.86l2.07,1a60.58,60.58,0,0,1-22,1.2Z" style="fill:#817b96"/><path d="M353.67,471.27a50.5,50.5,0,0,1,12.06-12.43C363,464.17,358.29,467.71,353.67,471.27Z" style="fill:#475686"/><path d="M38,624.79c-2.09,3.84-4.17,7.69-6.62,12.22C31.34,632.9,33.82,627.92,38,624.79Z" style="fill:#a0b3ca"/><path d="M804.62,594.59a43.35,43.35,0,0,1,18.9,0Z" style="fill:#48699e"/><path d="M531.62,652.79c0-.44,0-.87,0-1.31a58.43,58.43,0,0,1,11.83-2.83c-.81,2.29-3,1.9-4.68,2.32C536.32,651.51,534,652.13,531.62,652.79Z" style="fill:#446693"/><path d="M494.62,662.6c3.33-1.65,6.84-.72,10.28-.7C501.55,663.22,498.08,662.79,494.62,662.6Z" style="fill:#446693"/><path d="M385.62,257.79c3.87-2,5.46-6.88,10-8l-6.08,7-2.92,3c-2.16,2.21-3.47,5.43-7,6v-2A21.17,21.17,0,0,0,385.62,257.79Z" style="fill:#96b6d1"/><path d="M379.62,263.79a1.88,1.88,0,0,0,0,.58l-11,10.63A22.56,22.56,0,0,1,379.62,263.79Z" style="fill:#8ca9c7"/><path d="M301.68,423.79c-2.86-5.19.17-10,.86-15,.27-2,2.36-3.91.18-6,7.57-25,16.78-49.24,29.59-72,5-8.95,9.62-18.17,16.1-26.23.75.07.87.76,1.23,1.22-5.45,9.67-11.15,19.2-16.28,29a323.17,323.17,0,0,0-16.9,39.2,325.83,325.83,0,0,0-13.8,47.6A11.36,11.36,0,0,1,301.68,423.79Z" style="fill:#6a87ae"/><path d="M349.62,305.79l-1.23-1.22c6.16-10.15,14.17-18.92,21.27-28.37a2.31,2.31,0,0,1,.11,2.6A248.75,248.75,0,0,0,349.62,305.79Z" style="fill:#44628c"/><path d="M369.79,278.79c0-.86-.07-1.73-.11-2.6q5-5.19,9.95-10.4l7-6c-.57,3.45-3.7,4.9-5.73,7.17C377.33,271,373.52,274.89,369.79,278.79Z" style="fill:#8199bc"/><path d="M296.7,477.79c.3-6-1-12.11.91-18.05C297.23,465.79,298.73,471.87,296.7,477.79Z" style="fill:#7c94b7"/><path d="M283.53,491.79h-.81c-.71-12,.51-24,1.23-36.14,1.31,1.74.24,3.64.83,5.27Q284.15,476.35,283.53,491.79Z" style="fill:#6981af"/></svg>